<svg xmlns="http://www.w3.org/2000/svg" xmlns:xlink="http://www.w3.org/1999/xlink"><symbol id="arrow-icon" viewBox="0 0 8 12"><path d="M7.237 5.642L1.729.133a.506.506 0 1 0-.716.716L6.163 6l-5.151 5.15a.507.507 0 0 0 .716.717l5.509-5.509a.504.504 0 0 0 0-.716z"/></symbol><symbol id="basket-icon" viewBox="0 0 21 20">
<g>
	<path d="M5.657,2.031L5.422,0H0v2h3.64l1.5,13h13.988l1.699-12.969H5.657z M17.372,13H6.922L5.888,4.031h12.66
		L17.372,13z"/>
	<circle cx="6.984" cy="18" r="2"/>
	<circle cx="15.984" cy="18" r="2"/>
</g>
</symbol><symbol id="basket-red-icon" viewBox="0 0 21 20">
<polygon points="5.888,4.031 6.922,13 17.372,13 18.548,4.031 "/>
<circle cx="6.984" cy="18" r="2"/>
<circle cx="15.984" cy="18" r="2"/>
<path d="M5.657,2.031L5.422,0H0v2h3.64l1.5,13h13.988l1.699-12.969H5.657z M17.372,13H6.922L5.888,4.031h12.66
	L17.372,13z"/>
</symbol><symbol id="checkbox-off-icon" viewBox="0 0 23 23">
<path d="M20,2c0.542,0,1,0.458,1,1v17c0,0.542-0.458,1-1,1H3c-0.542,0-1-0.458-1-1V3c0-0.542,0.458-1,1-1H20 M20,0H3
	C1.35,0,0,1.35,0,3v17c0,1.65,1.35,3,3,3h17c1.65,0,3-1.35,3-3V3C23,1.35,21.65,0,20,0L20,0z"/>
</symbol><symbol id="checkbox-on-icon" viewBox="0 0 27 23">
<g id="Layer_1">
</g>
<g id="Layer_2">
	<g>
		<polygon points="7.285,7.486 4.456,10.315 12.239,18.098 26.171,4.166 23.343,1.337 12.239,12.439 		"/>
		<path d="M21,20c0,0.542-0.458,1-1,1H3c-0.542,0-1-0.458-1-1V3c0-0.542,0.458-1,1-1h16.908l1.585-1.585C21.051,0.158,20.545,0,20,0
			H3C1.35,0,0,1.35,0,3v17c0,1.65,1.35,3,3,3h17c1.65,0,3-1.35,3-3v-9.829l-2,2V20z"/>
	</g>
</g>
</symbol><symbol id="close-icon" viewBox="0 0 11 11"><path d="M10.979.728l-.708-.707L5.5 4.792.729.021.021.728 4.793 5.5.021 10.271l.707.708L5.5 6.207l4.771 4.772.708-.708L6.207 5.5z"/></symbol><symbol id="cow-icon" viewBox="0 0 49 49">
<g id="Layer_1">
</g>
<g id="Layer_2">
	<g>
		<path d="M24.5,0C10.969,0,0,10.969,0,24.5C0,38.031,10.969,49,24.5,49C38.031,49,49,38.031,49,24.5
			C49,10.969,38.031,0,24.5,0z M24.5,47C12.093,47,2,36.906,2,24.5C2,12.093,12.093,2,24.5,2C36.906,2,47,12.093,47,24.5
			C47,36.906,36.906,47,24.5,47z"/>
		<path d="M34.811,19.342c0.86-1.711,1.88-4.987,0.433-9.482c-0.122-0.378-0.457-0.649-0.853-0.688
			c-0.39-0.04-0.777,0.159-0.972,0.506c-1.271,2.268-4.038,5.927-6.047,6.094c-0.03,0.002-0.054,0.019-0.083,0.024
			C25.799,15.509,24.6,15.5,24.5,15.5c-0.103,0-1.311,0.009-2.801,0.292c-0.025-0.004-0.045-0.019-0.071-0.021
			c-2.004-0.167-4.773-3.827-6.048-6.095c-0.195-0.346-0.577-0.543-0.972-0.505c-0.396,0.04-0.73,0.31-0.852,0.688
			c-1.448,4.494-0.427,7.771,0.433,9.482c-1.744,0.22-3.954,0.777-4.757,2.188c-0.388,0.682-0.38,1.464,0.024,2.201
			c0.514,0.939,1.399,1.245,2.334,1.245c0.816,0,1.668-0.233,2.349-0.482c-0.004,0.54,0.026,1.08,0.129,1.612
			c0.288,1.496,1.131,3.636,1.748,5.197c0.188,0.479,0.396,1.004,0.509,1.324c-0.235,0.614-0.672,1.812-0.766,2.484
			c-0.112,0.801,0.114,2.147,1.121,3.306c1.443,1.659,4.006,2.5,7.619,2.5c3.612,0,6.176-0.841,7.619-2.5
			c1.007-1.158,1.233-2.505,1.121-3.306c-0.094-0.673-0.53-1.87-0.767-2.484c0.114-0.319,0.32-0.843,0.509-1.32
			c0.617-1.563,1.462-3.704,1.75-5.201c0.103-0.535,0.135-1.073,0.135-1.61c0.679,0.248,1.528,0.48,2.342,0.48
			c0.936,0,1.82-0.306,2.334-1.245c0.404-0.737,0.412-1.519,0.024-2.201C38.765,20.119,36.555,19.562,34.811,19.342z M33.858,12.708
			c0.428,3.06-0.477,5.157-1.031,6.112c-0.246-0.303-0.512-0.595-0.798-0.872c-0.544-0.526-1.199-0.934-1.891-1.258
			C31.621,15.639,32.939,14.017,33.858,12.708z M15.142,12.71c0.916,1.304,2.229,2.919,3.706,3.97
			c-0.701,0.329-1.359,0.744-1.892,1.283c-0.276,0.279-0.533,0.57-0.771,0.872C15.636,17.892,14.717,15.781,15.142,12.71z
			 M11.21,22.77c-0.089-0.163-0.063-0.21-0.04-0.25c0.223-0.391,1.387-1.006,3.609-1.233c-0.116,0.29-0.217,0.582-0.302,0.878
			C13.212,22.838,11.479,23.256,11.21,22.77z M32.768,25.729c-0.252,1.313-1.058,3.354-1.646,4.844
			c-0.398,1.01-0.609,1.552-0.683,1.877l-0.066,0.302l0.114,0.287c0.283,0.71,0.711,1.908,0.772,2.351
			c0.001,0.009,0.096,0.858-0.649,1.716c-0.72,0.826-2.363,1.812-6.11,1.812c-3.747,0-5.391-0.986-6.11-1.812
			c-0.746-0.857-0.651-1.707-0.65-1.716c0.062-0.441,0.489-1.641,0.772-2.352l0.114-0.286L18.56,32.45
			c-0.072-0.326-0.284-0.869-0.683-1.881c-0.587-1.489-1.392-3.528-1.645-4.841c-0.422-2.198,0.379-4.575,2.145-6.358
			c1.513-1.528,4.933-1.868,6.123-1.871c1.166,0,4.539,0.339,6.139,1.886C32.72,21.399,33.104,23.982,32.768,25.729z M37.789,22.77
			c-0.263,0.479-1.974,0.07-3.238-0.592c-0.084-0.3-0.183-0.596-0.297-0.888c2.198,0.23,3.354,0.84,3.575,1.229
			C37.853,22.56,37.879,22.606,37.789,22.77z"/>
	</g>
</g>
</symbol><symbol id="facebook-icon" viewBox="0 0 32 32">
<path d="M16,0C7.164,0,0,7.163,0,16s7.164,16,16,16c8.837,0,16-7.164,16-16S24.837,0,16,0z M20.062,9.455h-3.021
	v3.444h3.021v3.445h-3.021v8.61h-3.021v-8.61H11v-3.445h3.021V9.455c0-1.902,1.353-3.445,3.021-3.445h3.021V9.455z"/>
</symbol><symbol id="heart-icon" viewBox="0 0 15 13">
<path d="M10.799,0c-1.35,0-2.551,0.65-3.3,1.661C6.75,0.65,5.549,0,4.199,0C1.875,0,0,1.806,0,4.044
	C0,7.223,7.499,13,7.499,13s7.499-5.777,7.499-8.956C14.998,1.806,13.123,0,10.799,0z"/>
</symbol><symbol id="hit-icon" viewBox="0 0 61 61"><circle cx="30.5" cy="30.5" r="30.5"/><g><path d="M19.985 18.27c-.915 2.683-1.718 5.384-2.472 8.094-.543-2.863-.921-5.756-.958-8.715-.005-.431-1.939-.11-1.932.518.052 4.243.8 8.354 1.747 12.432-1.196 4.58-2.311 9.18-3.579 13.771-.109.394 1.771.138 1.904-.344.902-3.265 1.726-6.535 2.556-9.8.805 3.204 1.644 6.407 2.273 9.657.098.508 2.041.045 1.932-.518-.864-4.462-2.12-8.836-3.146-13.247 1.068-4.086 2.202-8.157 3.578-12.191.124-.361-1.737-.145-1.903.343zM34.395 18.798c.049-1.047-1.919-.794-1.963.128-.004.08-.004.159-.008.238-.039.065-.084.128-.101.204-1.004 4.463-2.611 8.729-4.056 13.06-.644 1.93-1.139 3.898-1.666 5.856-.139-6.623-.135-13.237-.165-19.871-.005-1.042-1.965-.769-1.961.134.037 8.337.018 16.641.303 24.971a.644.644 0 0 0-.034.301l.064.445c.123.856 1.959.48 1.944-.317.005-.011.016-.018.021-.029 1.636-4.171 2.478-8.591 3.894-12.838.521-1.558 1.048-3.108 1.561-4.662-.071 5.987.058 11.969.211 17.961.026 1.012 1.58.771 1.91.065l.056-.119c.112-.239.088-.423-.015-.558-.211-8.333-.389-16.635.005-24.969zM47.32 17.66c-3.158.38-6.312.227-9.478.048-.491-.028-2.24.851-1.221.908 1.093.062 2.182.109 3.271.145-.093.081-.161.167-.157.265.295 8.408-1.054 17.239.191 25.564.063.424 2.01.005 1.932-.518-1.229-8.229.069-16.951-.185-25.27 1.776.012 3.551-.052 5.33-.266.857-.102 1.669-1.039.317-.876z"/></g></symbol><symbol id="icecream-icon" viewBox="0 0 49 49">
<g id="Layer_1">
</g>
<g id="Layer_2">
	<g>
		<path d="M24.5,0C10.969,0,0,10.969,0,24.5C0,38.031,10.969,49,24.5,49C38.031,49,49,38.031,49,24.5
			C49,10.969,38.031,0,24.5,0z M24.5,47C12.093,47,2,36.906,2,24.5C2,12.093,12.093,2,24.5,2C36.906,2,47,12.093,47,24.5
			C47,36.906,36.906,47,24.5,47z"/>
		<path d="M24.5,7.625c-4.355,0-7.94,3.278-8.436,7.5H16v16.917h17V15.125h-0.063
			C32.44,10.903,28.855,7.625,24.5,7.625z M31,30.042H18v-9.257c0.275,0.337,0.705,0.631,1.542,0.631
			c1.292,0,2.125-0.713,2.125-1.625c0-0.375,0-0.875,0-0.875c0,0,0,0,0,0c0-0.472,0.382-0.854,0.854-0.854
			c0.472,0,0.854,0.382,0.854,0.854c0,0.009-0.005,0.017-0.005,0.025c0,0.007,0.005,0.01,0.005,0.017c0,0.833,0,3.292,0,3.292
			s-0.031,1.833,2.125,1.833c2.109,0,2.125-1.75,2.125-1.75v-2.25h0.001c0-0.002-0.001-0.003-0.001-0.005
			c0-0.742,0.602-1.344,1.344-1.344s1.344,0.602,1.344,1.344c0,0.031,0.021,0.088,0.021,0.088s0.034,0.609,0.667,0.894V30.042z"/>
		<path d="M23,40.125c0,0.828,0.671,1.5,1.5,1.5c0.828,0,1.5-0.672,1.5-1.5V33h-3V40.125z"/>
	</g>
</g>
</symbol><symbol id="instagram-icon" viewBox="0 0 32 32">
<g>
	<path d="M20.916,16c0,2.728-2.211,4.938-4.938,4.938S11.039,18.728,11.039,16c0-0.394,0.051-0.773,0.138-1.14
		h-0.897v6.838h11.396V14.86h-0.897C20.865,15.227,20.916,15.606,20.916,16z"/>
	<path d="M15.978,18.659c1.466,0,2.659-1.193,2.659-2.659s-1.193-2.659-2.659-2.659
		c-1.466,0-2.659,1.193-2.659,2.659S14.511,18.659,15.978,18.659z"/>
	<rect x="18.637" y="10.302" width="3.039" height="3.039"/>
	<path d="M16,0C7.164,0,0,7.164,0,16c0,8.837,7.164,16,16,16c8.837,0,16-7.163,16-16C32,7.164,24.837,0,16,0z
		 M23.955,21.698c0,1.254-1.025,2.279-2.279,2.279H10.279C9.026,23.978,8,22.952,8,21.698V10.302c0-1.253,1.026-2.279,2.279-2.279
		h11.396c1.254,0,2.279,1.026,2.279,2.279V21.698z"/>
</g>
</symbol><symbol id="leaf-icon" viewBox="0 0 49 49">
<g>
	<path d="M24.5,0C10.969,0,0,10.969,0,24.5C0,38.031,10.969,49,24.5,49C38.031,49,49,38.031,49,24.5
		C49,10.969,38.031,0,24.5,0z M24.5,47C12.093,47,2,36.906,2,24.5C2,12.093,12.093,2,24.5,2C36.906,2,47,12.093,47,24.5
		C47,36.906,36.906,47,24.5,47z"/>
	<path d="M34.807,26.756c-0.45-9.493-9.197-18.693-9.586-19.097c-0.015-0.015-0.033-0.023-0.048-0.037
		c-0.037-0.034-0.076-0.062-0.118-0.09c-0.042-0.029-0.084-0.055-0.13-0.077c-0.018-0.009-0.032-0.022-0.051-0.03
		c-0.027-0.011-0.056-0.011-0.083-0.02c-0.048-0.015-0.095-0.027-0.145-0.034c-0.051-0.008-0.101-0.01-0.152-0.01
		c-0.045,0-0.089,0.002-0.134,0.008c-0.055,0.008-0.105,0.021-0.158,0.038c-0.025,0.008-0.052,0.008-0.076,0.018
		c-0.018,0.007-0.031,0.021-0.049,0.029c-0.047,0.022-0.09,0.049-0.133,0.079c-0.042,0.028-0.081,0.057-0.118,0.091
		c-0.015,0.013-0.033,0.021-0.046,0.036c-0.389,0.404-9.14,9.608-9.587,19.105c-0.008,0.067-0.017,0.133-0.011,0.202
		c-0.013,0.363-0.017,0.727-0.003,1.091c0.369,10.256,9.978,12.82,10.075,12.845c0.082,0.021,0.165,0.031,0.247,0.031
		s0.165-0.01,0.247-0.031c0.097-0.024,9.706-2.589,10.074-12.845c0.013-0.363,0.009-0.727-0.003-1.089
		C34.825,26.896,34.815,26.827,34.807,26.756z M16.783,23.25c2.219,2.058,5.368,3.521,6.717,4.091v4.552
		c-2.448-1.196-6.219-3.341-7.302-5.228C16.268,25.522,16.477,24.378,16.783,23.25z M18.807,18.154
		c1.513,1.688,3.602,2.646,4.693,3.059v3.94c-1.654-0.76-4.424-2.216-6.016-4.043C17.872,20.094,18.318,19.102,18.807,18.154z
		 M31.518,21.108c-1.59,1.824-4.362,3.283-6.018,4.044v-3.939c1.092-0.413,3.183-1.372,4.695-3.062
		C30.684,19.1,31.13,20.091,31.518,21.108z M25.5,19.047v-8.008c1.033,1.279,2.387,3.1,3.651,5.229
		C28.198,17.642,26.615,18.544,25.5,19.047z M25.5,31.893v-4.552c1.35-0.569,4.499-2.034,6.719-4.092
		c0.305,1.128,0.515,2.273,0.584,3.417C31.72,28.549,27.948,30.695,25.5,31.893z M23.5,19.05c-1.113-0.5-2.694-1.399-3.649-2.779
		c1.264-2.129,2.617-3.95,3.649-5.229V19.05z M16.383,29.825c2.328,1.983,5.69,3.629,7.117,4.281v4.403
		C21.408,37.605,17.338,35.178,16.383,29.825z M25.5,38.521v-4.415c1.428-0.653,4.792-2.3,7.121-4.284
		C31.671,35.233,27.601,37.635,25.5,38.521z"/>
</g>
</symbol><symbol id="login-icon" viewBox="0 0 21 19">
<image overflow="visible" width="21" height="19" xlink:href="&#x412;&#x445;&#x43E;&#x434;.png">
</image>
<g>
	<polygon points="6,14.875 12.917,9.5 6,4.125 6,7.042 -0.042,7.042 -0.042,11.959 6,11.959 	"/>
	<path d="M18,0H5C3.9,0,3,0.9,3,2v2h2V2h13v15H5v-2H3v2c0,1.1,0.9,2,2,2h13c1.1,0,2-0.9,2-2V2C20,0.9,19.1,0,18,0z"/>
</g>
</symbol><symbol id="search-icon" viewBox="0 0 17 17">
<g id="Layer_1">
	<image overflow="visible" width="17" height="17" xlink:href="&#x41B;&#x443;&#x43F;&#x430;.png">
	</image>
</g>
<g id="Layer_2">
	<path d="M16.958,15.527L11.75,10.32C12.533,9.247,13,7.93,13,6.5C13,2.91,10.09,0,6.5,0S0,2.91,0,6.5
		S2.91,13,6.5,13c1.438,0,2.763-0.473,3.839-1.263l5.205,5.204L16.958,15.527z M6.5,11C4.019,11,2,8.981,2,6.5S4.019,2,6.5,2
		S11,4.019,11,6.5S8.981,11,6.5,11z"/>
</g>
</symbol><symbol id="thermometer-icon" viewBox="0 0 49 49">
<g>
	<path d="M24.5,0C10.969,0,0,10.969,0,24.5C0,38.031,10.969,49,24.5,49C38.031,49,49,38.031,49,24.5
		C49,10.969,38.031,0,24.5,0z M24.5,47C12.093,47,2,36.906,2,24.5C2,12.093,12.093,2,24.5,2C36.906,2,47,12.093,47,24.5
		C47,36.906,36.906,47,24.5,47z"/>
	<path d="M28.938,13.125c0-2.774-2.257-5.031-5.031-5.031s-5.031,2.257-5.031,5.031v14.64
		c-1.281,1.322-2,3.067-2,4.923c0,3.929,3.196,7.125,7.125,7.125s7.125-3.196,7.125-7.125c0-1.942-0.802-3.791-2.188-5.126V13.125z
		 M29.125,32.688c0,2.83-2.295,5.125-5.125,5.125c-2.831,0-5.125-2.295-5.125-5.125c0-1.647,0.792-3.098,2-4.035V13.125
		c0-1.674,1.357-3.031,3.031-3.031c1.674,0,3.031,1.357,3.031,3.031v15.372C28.257,29.425,29.125,30.952,29.125,32.688z"/>
	<path d="M25,29.559V13.188c0-0.552-0.447-1-1-1c-0.552,0-1,0.448-1,1v16.371c-1.163,0.413-2,1.512-2,2.816
		c0,1.657,1.343,3,3,3c1.657,0,3-1.343,3-3C27,31.07,26.163,29.972,25,29.559z"/>
	<rect x="31" y="12" width="6" height="2"/>
	<rect x="31" y="16" width="6" height="2"/>
	<rect x="31" y="20" width="6" height="2"/>
	<rect x="31" y="24" width="6" height="2"/>
</g>
</symbol><symbol id="twitter-icon" viewBox="0 0 32 32">
<g id="Layer_1">
</g>
<g id="Layer_2">
	<path d="M16,0C7.164,0,0,7.164,0,16c0,8.837,7.164,16,16,16c8.837,0,16-7.163,16-16C32,7.164,24.837,0,16,0z
		 M23.944,12.809c-0.251,6.516-3.463,10.832-10.992,10.702c-0.14,0-0.205,0-0.233,0c-0.015,0-0.021,0-0.021,0
		c-0.029,0-0.094,0-0.232,0c-0.447,0-4.543-0.443-5.344-1.823c2.479,0.19,4.247-0.406,5.12-1.136
		c-1.048-0.289-2.923-0.461-3.251-2.848c0.384,0.104,0.618,0.221,1.299,0.113c-1.307-0.824-2.758-1.519-2.679-3.643
		c0.311,0.317,1.164,0.518,1.46,0.457c-0.768-0.233-2.149-3.244-0.974-4.781c1.984,1.79,4.075,3.482,7.804,3.643
		c0.227-2.214,1.24-3.699,3.168-4.325c1.84-0.479,3.255,0.26,3.901,1.138c0.737-0.224,1.453-0.466,2.193-0.685
		c-0.004,0.833-0.569,1.463-0.935,1.709c0.747,0.165,1.423-0.475,1.423-0.475C25.467,11.818,24.557,12.58,23.944,12.809z"/>
</g>
</symbol><symbol id="vk-icon" viewBox="0 0 32 32">
<g>
	<path d="M16.637,14.495c0.402-0.019,0.719-0.082,0.951-0.188c0.326-0.145,0.54-0.33,0.641-0.559
		c0.101-0.229,0.15-0.496,0.15-0.797c0-0.232-0.058-0.465-0.174-0.697c-0.116-0.232-0.322-0.405-0.617-0.517
		c-0.264-0.1-0.592-0.155-0.984-0.165c-0.392-0.009-0.943-0.014-1.652-0.014h-0.339v2.965h0.565
		C15.749,14.523,16.235,14.514,16.637,14.495z"/>
	<path d="M18.118,17.084c-0.282-0.081-0.672-0.125-1.166-0.132c-0.494-0.006-1.012-0.009-1.55-0.009h-0.79v3.493
		h0.264c1.014,0,1.74-0.003,2.18-0.009c0.438-0.007,0.843-0.088,1.212-0.245c0.377-0.157,0.633-0.364,0.774-0.625
		s0.214-0.562,0.214-0.9c0-0.446-0.088-0.788-0.261-1.03C18.825,17.386,18.531,17.204,18.118,17.084z"/>
	<path d="M16,0C7.164,0,0,7.164,0,16c0,8.837,7.164,16,16,16c8.837,0,16-7.163,16-16C32,7.164,24.837,0,16,0z
		 M22.602,20.531c-0.273,0.533-0.646,0.976-1.124,1.327c-0.552,0.415-1.161,0.71-1.823,0.886s-1.501,0.264-2.519,0.264h-6.121V8.987
		h5.443c1.13,0,1.957,0.038,2.48,0.113c0.524,0.076,1.045,0.242,1.561,0.5c0.533,0.27,0.929,0.632,1.189,1.087
		c0.26,0.455,0.392,0.975,0.392,1.558c0,0.678-0.179,1.278-0.536,1.795c-0.358,0.518-0.863,0.92-1.517,1.208v0.075
		c0.917,0.182,1.642,0.559,2.179,1.13c0.537,0.571,0.807,1.325,0.807,2.261C23.013,19.392,22.875,19.997,22.602,20.531z"/>
</g>
</symbol></svg>